<svg width="8" height="8" viewBox="0 0 8 8" fill="none" xmlns="http://www.w3.org/2000/svg">
<g clip-path="url(#clip0)">
<path d="M7.8515 3.89842C7.75261 3.79945 7.63538 3.75 7.49994 3.75L0.500038 3.75C0.364534 3.75 0.247392 3.79945 0.148419 3.89842C0.0494455 3.9975 0 4.11464 0 4.25006C0 4.38546 0.0494455 4.5026 0.148419 4.6016L3.64838 8.10156C3.74746 8.20054 3.86461 8.25009 4 8.25009C4.13539 8.25009 4.25265 8.20054 4.35154 8.10156L7.8515 4.60157C7.95036 4.5026 8 4.38546 8 4.25004C8 4.11464 7.95036 3.9975 7.8515 3.89842Z" fill="#C6C9CF"/>
</g>
<defs>
<clipPath id="clip0">
<rect width="8" height="8" fill="white"/>
</clipPath>
</defs>
</svg>
