<svg width="40" height="41" viewBox="0 0 40 41" fill="none" xmlns="http://www.w3.org/2000/svg">
<path d="M32.0205 1.15864L38.8418 7.97795C39.3754 8.51182 39.7452 9.18719 39.9075 9.92437C40.0698 10.6615 40.0178 11.4298 39.7577 12.1384L36.2699 21.6581C36.1709 21.928 36.0143 22.1731 35.8109 22.3763L19.3453 38.8419C18.9778 39.2095 18.5416 39.5011 18.0614 39.7C17.5813 39.899 17.0667 40.0014 16.5469 40.0014C16.0272 40.0014 15.5126 39.899 15.0324 39.7C14.5523 39.5011 14.116 39.2095 13.7486 38.8419L1.15846 26.2518C0.416698 25.5098 0 24.5036 0 23.4545C0 22.4053 0.416698 21.3991 1.15846 20.6571L17.6439 4.17164C17.8477 3.96805 18.0934 3.81141 18.364 3.71266L27.864 0.240689C28.5722 -0.0183247 29.3398 -0.069532 30.0762 0.093099C30.8126 0.25573 31.4872 0.625425 32.0205 1.15864ZM25.6423 14.362C25.9162 14.6453 26.2437 14.8712 26.6059 15.0266C26.968 15.1819 27.3574 15.2636 27.7514 15.2669C28.1455 15.2701 28.5362 15.1948 28.9008 15.0454C29.2654 14.8961 29.5966 14.6756 29.8751 14.3968C30.1536 14.118 30.3738 13.7866 30.5229 13.4219C30.6719 13.0571 30.7468 12.6663 30.7432 12.2723C30.7396 11.8783 30.6575 11.4889 30.5018 11.1269C30.3462 10.765 30.1199 10.4376 29.8364 10.164C29.2764 9.62371 28.5267 9.32495 27.7486 9.33208C26.9706 9.3392 26.2264 9.65164 25.6765 10.2021C25.1265 10.7526 24.8148 11.497 24.8084 12.2751C24.802 13.0532 25.1015 13.8026 25.6423 14.362Z" fill="url(#paint0_linear_73:41)"/>
<defs>
<linearGradient id="paint0_linear_73:41" x1="38.427" y1="35.2821" x2="-2.47321" y2="-2.69532" gradientUnits="userSpaceOnUse">
<stop stop-color="#86EB93"/>
<stop offset="1" stop-color="#D7F8DB" stop-opacity="0.35"/>
</linearGradient>
</defs>
</svg>
