<svg width="44" height="44" viewBox="0 0 44 44" fill="none" xmlns="http://www.w3.org/2000/svg">
<path d="M22 44C34.1503 44 44 34.1503 44 22C44 9.84974 34.1503 0 22 0C9.84974 0 0 9.84974 0 22C0 34.1503 9.84974 44 22 44Z" fill="#E33E23"/>
<path fill-rule="evenodd" clip-rule="evenodd" d="M5.05078 22.2864C5.05078 22.2864 14.8448 24.401 16.221 19.8494C17.5704 15.3866 13.0955 14.4636 13.0955 14.4636H11.1296V21.9469H9.02311V14.7069H7.15788V13.9418C7.15788 13.9418 14.2247 13.9137 15.0051 14.0049C18.9287 14.4636 20.8383 21.4928 14.5543 22.8934C9.66666 23.9828 5.05078 22.2864 5.05078 22.2864ZM9.0112 23.8985V28.3905C9.0112 28.3905 8.99891 29.3464 8.13666 29.3464C7.27441 29.3464 7.06311 29.3464 7.06311 29.3464V30.0961H13.142V29.2712H11.7973C11.7973 29.2712 11.1037 29.1926 11.1037 28.4873C11.1037 27.782 11.1037 23.8572 11.1037 23.8572H9.02323L9.0112 23.8985ZM16.7805 30.1333H22.9031V29.1946H21.1431C21.1431 29.1946 20.5714 28.8716 20.5714 28.2178C20.5714 27.5639 20.5714 16.912 20.5714 16.912L27.3955 30.1191L34.0711 17.1649L33.9244 28.3403C33.9244 28.3403 34.0919 29.2639 33.1474 29.2639C32.2029 29.2639 32.0026 29.2925 32.0026 29.2925L31.9911 30.0117H38.114V29.1568H36.6847C36.6847 29.1568 36.0889 29.2152 36.0889 28.561C36.0889 27.9068 36.0889 14.9971 36.0889 14.9971C36.0889 14.9971 36.0978 14.7007 36.625 14.7007H37.8658V13.7871H34.0669L27.8124 26.7493L21.597 13.8787H18.1977V14.6533H19.277C19.277 14.6533 19.6512 14.612 19.6512 15.1808C19.6512 15.7496 19.5046 28.2779 19.5046 28.2779C19.5046 28.2779 19.5539 29.2504 18.4864 29.2504C17.4189 29.2504 16.7828 29.2504 16.7828 29.2504V30.1956L16.7805 30.1333Z" fill="white"/>
</svg>
