<svg width="91" height="24" viewBox="0 0 91 24" fill="none" xmlns="http://www.w3.org/2000/svg">
<path d="M13.2664 0L3.17969 24H7.56522L13.2664 8.82353L19.4062 23.8824H23.6821L13.2664 0Z" fill="#019961"/>
<path d="M13.2662 8.82324H0L2.08313 11.8821H14.5057L13.2662 8.82324Z" fill="#00364D"/>
<path d="M18.4211 11.8821L17.1055 8.82324H26.3151L24.4512 11.8821H18.4211Z" fill="#00364D"/>
<path d="M5.80969 17.4108L3.72656 14.2344H15.4722L16.7735 17.2932L5.80969 17.4108Z" fill="#00364D"/>
<path d="M20.8288 17.2932L19.4688 14.2344H23.0216L20.8288 17.2932Z" fill="#00364D"/>
<path d="M62.7885 19.9495C59.9113 19.9495 58.4727 18.212 58.4727 14.7369C58.4727 13.0129 58.8614 11.6963 59.6388 10.7871C60.4224 9.8712 61.5458 9.41325 63.0089 9.41325C64.0618 9.41325 65.0199 9.64223 65.883 10.1002L65.1392 12.2519C64.2271 11.8478 63.517 11.6458 63.0089 11.6458C61.6988 11.6458 61.0438 12.656 61.0438 14.6763C61.0438 16.6967 61.6988 17.7069 63.0089 17.7069C63.921 17.7069 64.7842 17.4106 65.5984 16.8179V19.1919C65.2005 19.4747 64.7934 19.67 64.3771 19.7778C63.9669 19.8923 63.4374 19.9495 62.7885 19.9495Z" fill="#019961"/>
<path d="M74.4645 19.7677H72.7015L72.2148 18.3837H72.1505C71.722 18.9764 71.2843 19.3872 70.8374 19.6161C70.3905 19.8384 69.8059 19.9495 69.0835 19.9495C68.1897 19.9495 67.4888 19.67 66.9807 19.111C66.4726 18.5453 66.2185 17.7406 66.2185 16.6967C66.2185 15.6528 66.5552 14.8716 67.2286 14.3531C67.9081 13.8345 68.9488 13.5483 70.3507 13.4944L71.9577 13.4439V12.9994C71.9577 11.969 71.4771 11.4538 70.516 11.4538C69.7875 11.4538 68.9213 11.6963 67.9173 12.1812L67.0817 10.3123C68.1408 9.69947 69.3069 9.39305 70.5803 9.39305C71.8597 9.39305 72.827 9.69611 73.482 10.3022C74.137 10.9016 74.4645 11.8007 74.4645 12.9994V19.7677ZM71.9577 15.8987V15.0602L70.9843 15.0905C70.2436 15.1174 69.6957 15.2656 69.3406 15.535C68.9856 15.7976 68.808 16.2017 68.808 16.7472C68.808 17.5284 69.2151 17.919 70.0293 17.919C70.617 17.919 71.0853 17.7372 71.4343 17.3735C71.7832 17.0031 71.9577 16.5115 71.9577 15.8987Z" fill="#019961"/>
<path d="M80.4883 14.4945C81.1434 15.04 81.4709 15.8145 81.4709 16.8179C81.4709 17.8214 81.1403 18.5958 80.4791 19.1413C79.818 19.6801 78.8661 19.9495 77.6233 19.9495C76.3868 19.9495 75.3399 19.7542 74.4829 19.3636V17.0705C74.9543 17.3129 75.4807 17.5149 76.0623 17.6766C76.65 17.8382 77.1673 17.919 77.6142 17.919C78.5263 17.919 78.9824 17.6294 78.9824 17.0503C78.9824 16.7607 78.8599 16.525 78.6151 16.3431C78.3702 16.1613 77.859 15.8852 77.0816 15.5148C76.3102 15.1444 75.7532 14.8211 75.4103 14.545C75.0798 14.2621 74.838 13.9423 74.6849 13.5853C74.538 13.2217 74.4645 12.7772 74.4645 12.2519C74.4645 11.3494 74.7829 10.6524 75.4195 10.1608C76.0562 9.66243 76.9438 9.41325 78.0825 9.41325C79.2272 9.41325 80.323 9.67927 81.3699 10.2113L80.6077 12.2115C80.0751 11.9623 79.616 11.7771 79.2303 11.6559C78.8508 11.5279 78.4681 11.4639 78.0825 11.4639C77.3356 11.4639 76.9622 11.6862 76.9622 12.1307C76.9622 12.3798 77.0877 12.5987 77.3387 12.7873C77.5897 12.9758 78.0886 13.2351 78.8355 13.5651C79.5884 13.8951 80.1394 14.2049 80.4883 14.4945Z" fill="#019961"/>
<path d="M90.0015 13.3224V19.9493H87.4763V14.0094C87.4763 12.548 86.9804 11.8172 85.9887 11.8172C85.2847 11.8172 84.7736 12.0799 84.4552 12.6052C84.143 13.1305 83.9869 13.9858 83.9869 15.1711V19.9493H81.4709V5.80664H83.9869V8.68567C83.9869 9.1975 83.9502 9.99891 83.8767 11.0899H84.0053C84.5624 10.0932 85.4561 9.59484 86.6866 9.59484C87.764 9.59484 88.5843 9.91473 89.1475 10.5545C89.7169 11.1943 90.0015 12.1169 90.0015 13.3224Z" fill="#019961"/>
<path d="M40.6375 19.77H38.9795L38.5218 18.4036H38.4614C38.0584 18.9887 37.6467 19.3943 37.2265 19.6204C36.8062 19.8398 36.2564 19.9495 35.5771 19.9495C34.7366 19.9495 34.0774 19.6736 33.5996 19.1217C33.1217 18.5631 32.8828 17.7686 32.8828 16.7379C32.8828 15.7073 33.1994 14.936 33.8327 14.424C34.4717 13.912 35.4504 13.6294 36.7688 13.5762L38.28 13.5264V13.0875C38.28 12.0702 37.8281 11.5615 36.9242 11.5615C36.2391 11.5615 35.4245 11.8009 34.4804 12.2796L33.6946 10.4345C34.6905 9.82941 35.7872 9.52687 36.9847 9.52687C38.1879 9.52687 39.0975 9.82608 39.7135 10.4245C40.3295 11.0163 40.6375 11.904 40.6375 13.0875V19.77ZM38.28 15.95V15.1222L37.3646 15.1521C36.668 15.1787 36.1528 15.325 35.8189 15.5909C35.485 15.8503 35.318 16.2492 35.318 16.7878C35.318 17.5591 35.7009 17.9448 36.4665 17.9448C37.0192 17.9448 37.4596 17.7652 37.7878 17.4062C38.1159 17.0405 38.28 16.5551 38.28 15.95Z" fill="#003249"/>
<path d="M47.4313 18.4734C46.8901 19.4575 46.087 19.9495 45.022 19.9495C43.9627 19.9495 43.1423 19.494 42.5608 18.5831C41.9794 17.6588 41.6887 16.3789 41.6887 14.7432C41.6887 13.1075 41.9851 11.8341 42.5781 10.9232C43.1768 10.0056 44.0087 9.54682 45.0738 9.54682C46.1388 9.54682 46.8721 9.62579 47.4478 10.6099L47.6126 10.9232C47.6126 10.0762 47.6126 9.27564 47.6126 9.0088V6.20691L49.806 5.80664V19.77H47.9926L47.5349 18.4734H47.4313ZM44.0893 14.803C44.0893 16.7778 44.6593 17.7652 45.7992 17.7652C46.4036 17.7652 46.8469 17.5624 47.129 17.1568C47.4169 16.7446 47.5723 16.0531 47.5953 15.0823V14.793C47.5953 13.7159 47.4514 12.9446 47.1636 12.4791C46.8757 12.007 46.4065 11.771 45.756 11.771C45.2263 11.771 44.8147 12.0336 44.5211 12.5589C44.2333 13.0775 44.0893 13.8256 44.0893 14.803Z" fill="#003249"/>
<path d="M54.9789 19.77H53.5004L49.806 9.73632H52.3945L53.9451 14.803L54.3328 15.8134L54.5912 15.2797L56.7646 9.73632H58.9846L54.9789 19.77Z" fill="#003249"/>
</svg>
