<svg width="80" height="35" viewBox="0 0 80 35" fill="none" xmlns="http://www.w3.org/2000/svg">
<path d="M39.1953 19.8425H40.4498V22.58H41.3561L42.9825 19.8425H44.354L42.4019 23.0554V23.0779L44.4703 26.584H43.0526L41.3792 23.6425H40.4736V26.584H39.2184V19.8418H39.1953V19.8425ZM47.2818 21.63C48.7912 21.63 50.0233 22.6932 50.0233 24.1636C50.0233 25.6572 48.815 26.6979 47.3049 26.6979C45.7941 26.6979 44.5858 25.6572 44.5858 24.1636C44.5627 22.6707 45.771 21.63 47.2818 21.63V21.63ZM50.999 21.7425H52.1841V25.544H53.7412V21.7432H54.9256V25.544H56.4826V21.7432H57.6678V26.584H51.0452V21.7425H50.999ZM61.1769 21.63C62.5939 21.63 63.384 22.6482 63.384 23.9154C63.3801 24.0745 63.3646 24.2331 63.3378 24.39H59.9218C59.9918 25.2268 60.6656 25.6797 61.4095 25.6797C61.9201 25.6797 62.4314 25.4533 62.8264 25.1593L63.3147 26.0193C62.8033 26.4483 62.0364 26.7204 61.3163 26.7204C59.6661 26.7204 58.6442 25.5665 58.6442 24.1861C58.6442 22.6707 59.6892 21.63 61.1769 21.63V21.63ZM63.9646 25.5665C64.5691 25.4758 65.0104 24.9786 65.0104 23.2586V21.7432H68.6358V26.584H67.4038V22.715H66.1955V23.2579C66.1955 25.3618 65.6149 26.584 63.9646 26.629V25.5658V25.5665ZM72.1674 21.63C73.5844 21.63 74.3744 22.6482 74.3744 23.9154C74.3705 24.0745 74.3551 24.2331 74.3282 24.39H70.9122C70.9823 25.2268 71.6561 25.6797 72.3999 25.6797C72.9105 25.6797 73.4219 25.4533 73.8169 25.1593L74.3051 26.0193C73.7938 26.4483 73.0268 26.7204 72.3068 26.7204C70.6573 26.7204 69.6346 25.5665 69.6346 24.1861C69.6346 22.6707 70.6804 21.63 72.1674 21.63V21.63ZM75.3971 21.7425H76.6284V23.5982H77.2329L78.4412 21.7432H79.8119L78.2317 24.0504V24.0736L79.9975 26.584H78.5574L77.256 24.6165H76.606V26.584H75.3732V21.7425H75.3964H75.3971ZM47.2818 25.6572C48.095 25.6572 48.7688 25.0461 48.7688 24.1411C48.7688 23.2586 48.095 22.625 47.2811 22.625C46.4686 22.625 45.8179 23.2368 45.8179 24.1411C45.8179 25.0461 46.4679 25.6572 47.2818 25.6572ZM62.1295 23.5532C62.1295 22.9197 61.6875 22.535 61.13 22.535C60.5031 22.535 60.038 22.9422 59.9218 23.5532H62.1295ZM73.12 23.5532C73.12 22.9197 72.6787 22.535 72.1212 22.535C71.4929 22.535 71.0285 22.9422 70.9122 23.5532H73.12Z" fill="#2D3540"/>
<path d="M56.5563 5.1579V16.5833C56.5572 16.6252 56.5495 16.6667 56.5335 16.7056C56.5175 16.7444 56.4936 16.7797 56.4633 16.8092C56.4329 16.8388 56.3967 16.8621 56.3568 16.8776C56.3169 16.8932 56.2742 16.9007 56.2313 16.8998H53.8379C53.7949 16.9007 53.7522 16.8932 53.7124 16.8776C53.6725 16.8621 53.6363 16.8388 53.6059 16.8092C53.5755 16.7797 53.5516 16.7444 53.5356 16.7056C53.5196 16.6667 53.5119 16.6252 53.5129 16.5833V5.1579C53.5119 5.11608 53.5196 5.07451 53.5356 5.03568C53.5516 4.99685 53.5755 4.96158 53.6059 4.93201C53.6363 4.90243 53.6725 4.87916 53.7124 4.86359C53.7522 4.84803 53.7949 4.8405 53.8379 4.84147H56.2313C56.2742 4.8405 56.3169 4.84803 56.3568 4.86359C56.3967 4.87916 56.4329 4.90243 56.4633 4.93201C56.4936 4.96158 56.5175 4.99685 56.5335 5.03568C56.5495 5.07451 56.5572 5.11608 56.5563 5.1579ZM75.2381 4.84147C75.3313 4.84147 75.4476 4.88647 75.5631 4.97718C75.6332 5.04469 75.6332 5.1579 75.6101 5.24861L71.6596 16.6966C71.6357 16.7558 71.5942 16.8068 71.5404 16.8431C71.4867 16.8794 71.4231 16.8994 71.3578 16.9005H69.22C69.0807 16.9005 68.9644 16.8323 68.9182 16.6966L66.6165 10.0226L64.3163 16.6959C64.2923 16.7551 64.2508 16.8061 64.1971 16.8424C64.1434 16.8787 64.0798 16.8986 64.0144 16.8998H61.8767C61.7373 16.8998 61.621 16.8323 61.5748 16.6959L57.6244 5.24791C57.6013 5.1579 57.6013 5.06719 57.6706 4.97718C57.7176 4.88647 57.8338 4.84147 57.9263 4.84147H60.5984C60.7378 4.84147 60.8541 4.93148 60.901 5.06719L63.0149 11.8319L65.3389 5.06719C65.3629 5.00795 65.4044 4.95696 65.4581 4.92066C65.5119 4.88437 65.5754 4.86439 65.6408 4.86326H67.5229C67.6623 4.86326 67.7785 4.93148 67.8248 5.06719L70.1488 11.8319L72.2634 5.06719C72.2824 5.00311 72.3219 4.94662 72.3762 4.906C72.4305 4.86538 72.4968 4.84277 72.5653 4.84147H75.2374H75.2381ZM79.281 4.84147C79.4435 4.84147 79.5829 4.97718 79.606 5.1579V16.5833C79.607 16.6252 79.5993 16.6667 79.5833 16.7056C79.5673 16.7444 79.5434 16.7797 79.513 16.8092C79.4826 16.8388 79.4464 16.8621 79.4065 16.8776C79.3667 16.8932 79.324 16.9007 79.281 16.8998H76.8876C76.8447 16.9007 76.802 16.8932 76.7621 16.8776C76.7222 16.8621 76.686 16.8388 76.6556 16.8092C76.6253 16.7797 76.6014 16.7444 76.5854 16.7056C76.5694 16.6667 76.5617 16.6252 76.5627 16.5833V5.1579C76.5617 5.11608 76.5694 5.07451 76.5854 5.03568C76.6014 4.99685 76.6253 4.96158 76.6556 4.93201C76.686 4.90243 76.7222 4.87916 76.7621 4.86359C76.802 4.84803 76.8447 4.8405 76.8876 4.84147H79.281ZM52.1183 16.4933C52.2577 16.6516 52.1414 16.8773 51.932 16.8773H49.0042C48.9466 16.8788 48.8893 16.8673 48.837 16.8438C48.7846 16.8203 48.7385 16.7853 48.7023 16.7416L48.2148 16.1537C47.1922 16.7866 45.9832 17.1719 44.7057 17.1719C41.1279 17.1719 38.2232 14.3437 38.2232 10.8594C38.2232 7.37506 41.1279 4.54683 44.7057 4.54683C48.2842 4.54683 51.1889 7.37506 51.1889 10.8594C51.1889 12.104 50.8169 13.2805 50.1662 14.2755L52.1183 16.4926V16.4933ZM27.6502 22.0359C28.2547 22.2623 28.4872 23.1441 28.5334 23.5288C28.6266 24.2305 28.4179 24.502 28.1853 24.502C27.9528 24.502 27.6271 24.2305 27.279 23.6877C26.9301 23.1441 26.7908 22.5337 26.9771 22.2166C27.0926 22.0127 27.3483 21.9227 27.6509 22.0359H27.6502ZM24.1186 24.5927C24.4905 24.5927 24.9087 24.7509 25.2806 25.0673C26.0007 25.6559 26.2101 26.3345 25.8382 26.8323C25.6287 27.0813 25.2806 27.2395 24.8856 27.2395C24.4905 27.2395 24.0724 27.1038 23.7936 26.8548C23.1429 26.312 22.9573 25.4063 23.3747 24.9091C23.538 24.7052 23.7936 24.5927 24.1186 24.5927V24.5927ZM15.9866 31.1309C7.15629 31.1309 0 24.1623 0 15.5651C0 6.96791 7.15701 0 15.9859 0C24.8155 0 31.9725 6.96862 31.9725 15.5651C31.9725 18.4834 31.1362 21.2216 29.7193 23.552C29.6723 23.6195 29.5561 23.597 29.5329 23.5063C28.9754 19.683 26.582 17.5784 23.0967 16.9455C22.7941 16.8998 22.7479 16.7191 23.1429 16.6741C24.2118 16.5833 25.7219 16.6058 26.512 16.7416C26.5582 16.3569 26.582 15.9498 26.582 15.5426C26.582 9.86365 21.8415 5.24791 16.009 5.24791C10.1773 5.24791 5.43673 9.86365 5.43673 15.5426C5.43673 21.2216 10.1773 25.8373 16.0097 25.8373H16.4972C16.3316 24.9188 16.2614 23.9863 16.2878 23.0541C16.3116 22.4205 16.451 22.3298 16.7298 22.8277C18.1937 25.2938 20.2852 27.5109 24.3743 28.3934C27.7202 29.1177 31.0662 29.9545 34.6678 34.4113C34.9928 34.796 34.5053 35.2031 34.1334 34.8867C30.4624 31.7188 27.1165 30.6781 24.0724 30.6781C20.6564 30.7013 18.3331 31.1309 15.9859 31.1309H15.9866ZM46.3089 13.959L45.0307 12.443C44.892 12.2847 45.0083 12.0358 45.217 12.0358H47.9122C48.0516 11.6737 48.1217 11.2665 48.1217 10.8594C48.1217 8.98185 46.6809 7.35256 44.7057 7.35256C42.7312 7.35256 41.2897 8.98185 41.2897 10.8594C41.2897 12.7369 42.7312 14.3437 44.7057 14.3437C45.2632 14.3662 45.8215 14.208 46.3089 13.959V13.959Z" fill="#FF8C00"/>
</svg>
