<svg width="24" height="24" viewBox="0 0 24 24" fill="none" xmlns="http://www.w3.org/2000/svg">
<circle opacity="0.5" cx="12" cy="12" r="12" fill="#D3D7FA"/>
<path d="M12.0008 12.2082C13.533 12.2082 14.7854 10.947 14.7854 9.40417C14.7854 7.86131 13.533 6.6001 12.0008 6.6001C10.4687 6.6001 9.21631 7.86131 9.21631 9.40417C9.21631 10.947 10.4687 12.2082 12.0008 12.2082Z" fill="#5766EC"/>
<path d="M16.7797 14.4494C16.7067 14.2657 16.6094 14.0943 16.5 13.9351C15.9407 13.1024 15.0773 12.5514 14.1046 12.4167C13.983 12.4045 13.8492 12.429 13.7519 12.5024C13.2412 12.882 12.6333 13.078 12.0009 13.078C11.3686 13.078 10.7607 12.882 10.25 12.5024C10.1527 12.429 10.0189 12.3922 9.89732 12.4167C8.92455 12.5514 8.04906 13.1024 7.50188 13.9351C7.39245 14.0943 7.29516 14.278 7.22222 14.4494C7.18575 14.5229 7.1979 14.6086 7.23437 14.6821C7.33166 14.8535 7.45324 15.0249 7.56268 15.1718C7.7329 15.4045 7.91531 15.6127 8.12203 15.8086C8.29226 15.98 8.48681 16.1392 8.68138 16.2984C9.64198 17.0208 10.7972 17.4004 11.9888 17.4004C13.1804 17.4004 14.3356 17.0208 15.2962 16.2984C15.4908 16.1514 15.6853 15.98 15.8556 15.8086C16.0501 15.6127 16.2447 15.4045 16.4149 15.1718C16.5365 15.0127 16.646 14.8535 16.7432 14.6821C16.804 14.6086 16.8161 14.5228 16.7797 14.4494Z" fill="#5766EC"/>
</svg>
