<svg width="16" height="16" viewBox="0 0 16 16" fill="none" xmlns="http://www.w3.org/2000/svg">
<path d="M8 0C3.58874 0 0 3.58874 0 8C0 12.4113 3.58874 16 8 16C12.4113 16 16 12.4113 16 8C16 3.58874 12.4113 0 8 0ZM9.18519 11.2593C9.18519 11.9135 8.65541 12.4444 8 12.4444C7.34459 12.4444 6.81482 11.9135 6.81482 11.2593V7.11111C6.81482 6.45689 7.34459 5.92593 8 5.92593C8.65541 5.92593 9.18519 6.45689 9.18519 7.11111V11.2593ZM8 5.33333C7.34578 5.33333 6.81482 4.80237 6.81482 4.14815C6.81482 3.49393 7.34578 2.96296 8 2.96296C8.65422 2.96296 9.18519 3.49393 9.18519 4.14815C9.18519 4.80237 8.65422 5.33333 8 5.33333Z" fill="#5766ec"/>
</svg>
