<svg width="48" height="48" viewBox="0 0 48 48" fill="none" xmlns="http://www.w3.org/2000/svg">
<path d="M24 48C47.815 48 48 37.255 48 24C48 10.745 47.815 0 24 0C0.184999 0 0 10.745 0 24C0 37.255 0.184999 48 24 48Z" fill="black"/>
<path d="M26.9057 12.9846V10H22.7358V12.9538C19.0472 13.6 16.8019 16.1846 16.8019 19.0769C16.8019 26.7692 27.8679 24.4615 27.8679 28.4615C27.8679 30 26.5849 31.2308 24.1792 31.2308C20.8113 31.2308 18.8868 28.9231 18.8868 28.9231L16 31.6923C16 31.6923 18.2774 34.4923 22.7358 35.1077V38H26.9057V35.0154C30.8189 34.2769 33 31.6923 33 28.4615C33 20.7692 21.934 23.0769 21.934 19.0769C21.934 17.8462 23.0566 16.7692 24.9811 16.7692C27.5472 16.7692 29.1509 18.6154 29.1509 18.6154L32.0377 15.6923C32.0377 15.6923 30.3377 13.6615 26.9057 12.9846Z" fill="white"/>
</svg>
