<svg width="40" height="40" viewBox="0 0 40 40" fill="none" xmlns="http://www.w3.org/2000/svg">
<path d="M18.367 32.5174L14.2861 28.4345C14.1073 28.2558 13.8951 28.114 13.6615 28.0172C13.428 27.9205 13.1776 27.8707 12.9248 27.8707C12.672 27.8707 12.4217 27.9205 12.1881 28.0172C11.9545 28.114 11.7423 28.2558 11.5635 28.4345C11.3848 28.6133 11.243 28.8255 11.1462 29.0591C11.0495 29.2927 10.9997 29.543 10.9997 29.7958C10.9997 30.0486 11.0495 30.2989 11.1462 30.5325C11.243 30.7661 11.3848 30.9783 11.5635 31.1571L15.6464 35.236L10.8844 40L2.36081 39.4305C1.89593 39.3999 1.45795 39.2016 1.12817 38.8726C0.798382 38.5435 0.5992 38.1059 0.567595 37.6411L0 29.1137L13.2721 15.8416C12.7668 13.0192 13.1755 10.1091 14.4387 7.53505C15.7019 4.96096 17.7536 2.85718 20.2952 1.52989C22.8368 0.202607 25.7357 -0.278906 28.5699 0.155437C31.4041 0.589779 34.0258 1.91731 36.0533 3.9448C38.0808 5.9723 39.4083 8.59395 39.8426 11.4282C40.277 14.2624 39.7955 17.1613 38.4682 19.7029C37.1409 22.2445 35.0371 24.2962 32.463 25.5594C29.8889 26.8225 26.9789 27.2312 24.1565 26.726L18.3651 32.5154L18.367 32.5174ZM25.1685 14.8296C25.5258 15.187 25.9499 15.4705 26.4168 15.664C26.8836 15.8575 27.384 15.9571 27.8894 15.9572C28.3947 15.9573 28.8952 15.8578 29.3621 15.6645C29.829 15.4712 30.2533 15.1878 30.6107 14.8305C30.9681 14.4733 31.2516 14.0491 31.4451 13.5822C31.6386 13.1154 31.7382 12.615 31.7383 12.1096C31.7384 11.6043 31.6389 11.1039 31.4456 10.637C31.2523 10.17 30.9689 9.74576 30.6116 9.38836C29.8901 8.66655 28.9114 8.26095 27.8908 8.26077C26.8701 8.26058 25.8913 8.66585 25.1695 9.3874C24.4477 10.1089 24.0421 11.0877 24.0419 12.1083C24.0417 13.1289 24.447 14.1078 25.1685 14.8296Z" fill="url(#paint0_linear_71:21)"/>
<defs>
<linearGradient id="paint0_linear_71:21" x1="38.4251" y1="35.2809" x2="-2.47362" y2="-2.69466" gradientUnits="userSpaceOnUse">
<stop stop-color="#589BD8"/>
<stop offset="1" stop-color="#589BD8" stop-opacity="0.35"/>
</linearGradient>
</defs>
</svg>
