<svg width="40" height="40" viewBox="0 0 40 40" fill="none" xmlns="http://www.w3.org/2000/svg">
<path d="M18 26H17.898C17.3946 26 16.9119 25.8 16.5559 25.4441C16.2 25.0881 16 24.6054 16 24.102C16 23.5716 15.7893 23.0629 15.4142 22.6878C15.0391 22.3127 14.5304 22.102 14 22.102C13.4696 22.102 12.9609 22.3127 12.5858 22.6878C12.2107 23.0629 12 23.5716 12 24.102C12 25.6662 12.6214 27.1664 13.7275 28.2725C14.8336 29.3786 16.3338 30 17.898 30H18V32C18 32.5304 18.2107 33.0391 18.5858 33.4142C18.9609 33.7893 19.4696 34 20 34C20.5304 34 21.0391 33.7893 21.4142 33.4142C21.7893 33.0391 22 32.5304 22 32V30C23.5913 30 25.1174 29.3679 26.2426 28.2426C27.3679 27.1174 28 25.5913 28 24C28 22.4087 27.3679 20.8826 26.2426 19.7574C25.1174 18.6321 23.5913 18 22 18V14H22.044C23.124 14 24 14.876 24 15.956C24 16.4864 24.2107 16.9951 24.5858 17.3702C24.9609 17.7453 25.4696 17.956 26 17.956C26.5304 17.956 27.0391 17.7453 27.4142 17.3702C27.7893 16.9951 28 16.4864 28 15.956C28 14.3764 27.3725 12.8614 26.2555 11.7445C25.1386 10.6275 23.6236 10 22.044 10H22V8C22 7.46957 21.7893 6.96086 21.4142 6.58579C21.0391 6.21071 20.5304 6 20 6C19.4696 6 18.9609 6.21071 18.5858 6.58579C18.2107 6.96086 18 7.46957 18 8V10C17.2121 10 16.4319 10.1552 15.7039 10.4567C14.9759 10.7583 14.3145 11.2002 13.7574 11.7574C13.2002 12.3145 12.7583 12.9759 12.4567 13.7039C12.1552 14.4319 12 15.2121 12 16C12 16.7879 12.1552 17.5681 12.4567 18.2961C12.7583 19.0241 13.2002 19.6855 13.7574 20.2426C14.3145 20.7998 14.9759 21.2417 15.7039 21.5433C16.4319 21.8448 17.2121 22 18 22V26ZM22 26V22C22.5304 22 23.0391 22.2107 23.4142 22.5858C23.7893 22.9609 24 23.4696 24 24C24 24.5304 23.7893 25.0391 23.4142 25.4142C23.0391 25.7893 22.5304 26 22 26ZM18 14V18C17.4696 18 16.9609 17.7893 16.5858 17.4142C16.2107 17.0391 16 16.5304 16 16C16 15.4696 16.2107 14.9609 16.5858 14.5858C16.9609 14.2107 17.4696 14 18 14ZM20 40C8.954 40 0 31.046 0 20C0 8.954 8.954 0 20 0C31.046 0 40 8.954 40 20C40 31.046 31.046 40 20 40Z" fill="url(#paint0_linear_73:34)"/>
<defs>
<linearGradient id="paint0_linear_73:34" x1="38.427" y1="35.2809" x2="-2.47191" y2="-2.69663" gradientUnits="userSpaceOnUse">
<stop stop-color="#F8C067" stop-opacity="0.957344"/>
<stop offset="1" stop-color="#F8C067" stop-opacity="0.35"/>
</linearGradient>
</defs>
</svg>
