<svg width="40" height="40" viewBox="0 0 40 40" fill="none" xmlns="http://www.w3.org/2000/svg">
<path d="M22 18V8C22 7.46957 21.7893 6.96086 21.4142 6.58579C21.0391 6.21071 20.5304 6 20 6C19.4696 6 18.9609 6.21071 18.5858 6.58579C18.2107 6.96086 18 7.46957 18 8V20C18 20.5304 18.2107 21.0391 18.5858 21.4142C18.9609 21.7893 19.4696 22 20 22H30C30.5304 22 31.0391 21.7893 31.4142 21.4142C31.7893 21.0391 32 20.5304 32 20C32 19.4696 31.7893 18.9609 31.4142 18.5858C31.0391 18.2107 30.5304 18 30 18H22ZM20 40C8.954 40 0 31.046 0 20C0 8.954 8.954 0 20 0C31.046 0 40 8.954 40 20C40 31.046 31.046 40 20 40Z" fill="url(#paint0_linear_73:53)"/>
<defs>
<linearGradient id="paint0_linear_73:53" x1="38.427" y1="35.2809" x2="-2.47191" y2="-2.69663" gradientUnits="userSpaceOnUse">
<stop stop-color="#EB86C9"/>
<stop offset="1" stop-color="#EB86C9" stop-opacity="0.35"/>
</linearGradient>
</defs>
</svg>
